<?xml version="1.0" standalone="no"?>
<!DOCTYPE svg PUBLIC "-//W3C//DTD SVG 20010904//EN"
 "http://www.w3.org/TR/2001/REC-SVG-20010904/DTD/svg10.dtd">
<svg version="1.0" xmlns="http://www.w3.org/2000/svg"
 width="431.000000pt" height="109.000000pt" viewBox="0 0 431.000000 109.000000"
 preserveAspectRatio="xMidYMid meet">

<g transform="translate(0.000000,109.000000) scale(0.100000,-0.100000)"
fill="#000000" stroke="none">
<path d="M520 881 l25 -7 3 -164 2 -165 -26 43 c-30 49 -68 72 -122 72 -119 0
-193 -166 -129 -290 28 -55 63 -81 118 -87 49 -5 100 21 127 67 11 20 10 19
-9 -4 -12 -16 -38 -35 -57 -43 -30 -12 -37 -12 -70 4 -53 26 -77 79 -77 168 0
82 23 138 66 160 43 23 75 18 114 -16 56 -50 76 -141 48 -227 -4 -15 -3 -15 6
-2 8 11 11 1 11 -42 0 -58 0 -58 30 -58 27 0 30 2 20 19 -6 12 -10 126 -10
300 l0 281 -47 -1 c-37 -1 -42 -3 -23 -8z"/>
<path d="M2368 880 l23 -10 -3 -290 -3 -290 30 0 30 0 -3 300 -3 300 -47 -1
c-39 0 -43 -2 -24 -9z"/>
<path d="M2988 883 l23 -4 -3 -295 -3 -294 30 0 30 0 -3 99 c-4 117 8 169 49
216 58 66 137 54 158 -22 15 -54 14 -266 -1 -281 -9 -9 -2 -12 32 -12 34 0 41
3 32 12 -8 8 -12 57 -12 156 l0 144 -29 29 c-57 57 -169 31 -211 -49 l-19 -37
-1 173 0 172 -47 -1 c-27 -1 -38 -4 -25 -6z"/>
<path d="M3955 878 c-38 -21 -45 -39 -45 -129 l0 -88 -27 -4 -28 -4 28 -2 27
-1 0 -168 c0 -117 -4 -172 -12 -180 -9 -9 -2 -12 32 -12 34 0 41 3 32 12 -8 8
-12 63 -12 179 l0 168 48 4 47 3 -48 2 -49 2 4 95 c2 53 8 99 15 106 6 6 26
15 45 19 l33 8 -35 1 c-19 0 -44 -5 -55 -11z"/>
<path d="M4060 865 c11 -13 11 -20 0 -40 -7 -13 -10 -31 -6 -40 9 -24 39 -14
50 17 8 23 6 32 -14 53 -25 27 -51 35 -30 10z"/>
<path d="M751 797 c-17 -21 -3 -49 23 -45 15 2 21 10 21 28 0 28 -26 38 -44
17z"/>
<path d="M1414 795 c-8 -21 2 -45 19 -45 8 0 20 7 27 15 10 12 10 18 0 30 -7
8 -19 15 -27 15 -7 0 -16 -7 -19 -15z"/>
<path d="M1652 729 c-3 -35 -22 -58 -57 -68 -25 -8 -26 -9 -7 -10 22 -1 22 -3
23 -138 1 -76 4 -149 8 -162 9 -33 49 -61 96 -66 l40 -5 -34 13 c-53 21 -60
44 -61 209 l0 147 73 4 72 3 -72 2 -72 2 -4 48 c-2 26 -4 35 -5 21z"/>
<path d="M720 651 l25 -7 3 -169 c2 -128 -1 -170 -10 -177 -8 -5 3 -8 27 -8
l40 0 -3 185 -3 185 -52 -1 c-38 -1 -45 -3 -27 -8z"/>
<path d="M1014 650 c-33 -13 -82 -77 -90 -115 -11 -60 0 -152 22 -182 72 -97
188 -94 247 5 l22 37 3 -87 c3 -104 -9 -158 -46 -199 -23 -26 -39 -33 -87 -39
l-60 -7 54 -2 c75 -1 135 28 161 80 18 35 20 59 20 279 0 233 -1 240 -20 240
-18 0 -20 -7 -20 -56 0 -38 -3 -53 -11 -48 -8 4 -9 -1 -3 -17 14 -43 6 -125
-15 -168 -41 -80 -122 -100 -173 -42 -48 54 -60 137 -32 230 27 91 103 117
170 59 25 -23 33 -26 24 -12 -29 47 -108 68 -166 44z"/>
<path d="M1388 653 l23 -5 -3 -179 -3 -179 40 1 c22 0 34 3 28 6 -10 3 -13 50
-13 184 l0 179 -47 -1 c-27 -1 -38 -4 -25 -6z"/>
<path d="M1970 637 c-55 -37 -75 -81 -75 -167 0 -122 51 -185 150 -185 58 0
89 19 126 80 l19 30 0 -52 c0 -51 1 -53 28 -53 l27 0 -3 185 -3 185 -24 0
c-24 0 -25 -3 -25 -57 l-1 -58 -20 38 c-39 75 -132 100 -199 54z m138 -1 c15
-8 37 -32 50 -54 59 -105 27 -240 -65 -279 -31 -12 -38 -12 -71 4 -49 24 -74
76 -75 156 -1 79 17 130 54 162 34 28 67 32 107 11z"/>
<path d="M2655 646 c-116 -51 -128 -259 -18 -332 60 -40 149 -38 195 3 20 18
53 73 44 73 -3 0 -12 -13 -21 -30 -30 -59 -127 -80 -179 -39 -43 34 -60 76
-60 154 0 100 30 153 99 174 l30 9 -30 1 c-16 0 -43 -6 -60 -13z"/>
<path d="M2778 650 c38 -9 72 -36 72 -58 0 -9 -8 -24 -17 -34 -15 -17 -15 -20
0 -35 13 -13 19 -14 31 -3 48 39 -24 142 -96 139 -17 -1 -15 -3 10 -9z"/>
<path d="M3527 638 c-101 -59 -104 -266 -4 -327 74 -44 174 -31 217 29 30 42
24 42 -19 -1 -32 -33 -45 -39 -80 -39 -80 0 -123 41 -137 129 l-7 41 137 0
136 0 0 33 c-1 77 -69 159 -130 156 -22 -2 -22 -2 -4 -6 41 -8 83 -80 84 -145
l0 -28 -110 0 c-123 0 -120 -2 -100 72 13 46 53 95 83 101 20 4 20 4 -3 5 -14
1 -42 -8 -63 -20z"/>
<path d="M1788 318 c-15 -15 -23 -28 -19 -28 9 0 56 49 50 53 -2 1 -16 -10
-31 -25z"/>
<path d="M929 196 c-15 -31 10 -85 50 -109 42 -25 50 -21 10 6 -40 27 -47 51
-23 78 14 15 14 21 4 34 -18 21 -29 19 -41 -9z"/>
</g>
</svg>
